#!OML:ASF F:\VICON\USERDATA\INSTALL\Justin_Nancy\Justin_Nancy.ASF
:FULLY-SPECIFIED
:DEGREES
261
root -0.0513391 17.178 -2.31092 4.49617 -7.57456 -3.23065
lowerback 6.33239 2.35917 3.40415
upperback 0.831205 3.43114 2.13074
thorax -2.62035 1.68092 0.000812114
lowerneck -16.9722 -4.67072 -8.82116
upperneck 20.0735 -5.75127 7.06069
head 9.61837 -2.57702 3.14836
rclavicle 1.95803e-014 3.97569e-016
rhumerus -22.1631 -5.42623 -81.0333
rradius 35.3142
rwrist 3.55051
rhand -14.8306 10.8186
rfingers 7.12502
rthumb 11.3282 -18.8555
lclavicle 1.95803e-014 3.97569e-016
lhumerus -36.5587 6.61088 83.8449
lradius 27.3367
lwrist -11.1303
lhand -9.06662 27.557
lfingers 7.12502
lthumb 16.8823 56.8431
rfemur 14.2805 5.66111 28.0698
rtibia 12.066
rfoot -14.3961 -3.89832
rtoes -10.2433
lfemur -34.2415 -4.56388 -12.1147
ltibia 18.4611
lfoot -7.46794 9.55998
ltoes -6.31788
262
root -0.0437275 17.1616 -2.10143 4.31728 -7.23191 -3.00015
lowerback 6.19 2.22874 3.11942
upperback 0.853413 3.23151 2.14735
thorax -2.53906 1.58611 0.198956
lowerneck -16.8954 -4.60028 -8.92007
upperneck 20.1762 -5.65511 7.13153
head 9.6368 -2.53406 3.20577
rclavicle 5.81445e-014 2.78299e-015
rhumerus -22.1915 -5.63969 -80.8581
rradius 35.3511
rwrist 3.91445
rhand -15.2423 13.1192
rfingers 7.12502
rthumb 10.931 -16.5763
lclavicle 5.81445e-014 2.78299e-015
lhumerus -36.713 7.19425 83.6676
lradius 26.8323
lwrist -11.5755
lhand -9.71954 26.4337
lfingers 7.12502
lthumb 16.2537 55.7724
rfemur 14.7908 5.61783 27.8673
rtibia 12.8613
rfoot -13.5445 -3.46557
rtoes -8.17592
lfemur -34.0473 -3.2646 -13.401
ltibia 18.9229
lfoot -6.50345 7.7529
ltoes -5.2202
263
root -0.0371635 17.1442 -1.89615 4.1187 -6.76909 -2.88783
lowerback 6.22659 2.1005 2.97836
upperback 0.907064 3.05214 2.17465
thorax -2.51611 1.499 0.319475
lowerneck -17.1041 -4.65449 -9.07055
upperneck 20.2633 -5.70345 7.24624
head 9.71911 -2.55117 3.26331
rclavicle 9.14409e-015 -2.10712e-014
rhumerus -22.2131 -5.89563 -80.7267
rradius 35.6557
rwrist 4.1367
rhand -15.2393 12.6452
rfingers 7.12502
rthumb 10.9339 -17.0501
lclavicle 9.14409e-015 -2.10712e-014
lhumerus -36.6813 7.70805 83.4966
lradius 26.377
lwrist -12.097
lhand -9.72089 26.4173
lfingers 7.12502
lthumb 16.2524 55.7561
rfemur 15.1805 5.54167 27.8646
rtibia 13.8372
rfoot -13.6035 -3.8069
rtoes -12.0526
lfemur -33.9012 -2.39266 -14.3971
ltibia 19.6769
lfoot -5.66859 6.66534
ltoes -5.57649
264
root -0.0318162 17.1279 -1.68861 3.80275 -6.59845 -2.85233
lowerback 6.44872 2.11536 2.94225
upperback 0.954045 3.07724 2.15296
thorax -2.59201 1.51095 0.307229
lowerneck -17.1539 -4.73219 -9.09717
upperneck 20.3827 -5.82635 7.32551
head 9.78532 -2.60032 3.2793
rclavicle -2.55438e-014 -8.34896e-015
rhumerus -22.4155 -6.17205 -80.6368
rradius 35.9436
rwrist 3.92592
rhand -15.2128 11.7894
rfingers 7.12502
rthumb 10.9595 -17.9046
lclavicle -2.55438e-014 -8.34896e-015
lhumerus -36.7249 7.92547 83.3394
lradius 26.164
lwrist -12.1768
lhand -8.98965 27.9273
lfingers 7.12502
lthumb 16.9564 57.2071
rfemur 15.619 5.67056 27.9423
rtibia 14.876
rfoot -13.0963 -3.9605
rtoes -13.9718
lfemur -33.5954 -1.98203 -15.0064
ltibia 20.6779
lfoot -5.03943 6.44211
ltoes -6.74595
265
root -0.0192123 17.1192 -1.45921 3.49201 -6.5834 -2.73224
lowerback 6.45077 2.15634 2.90115
upperback 0.945742 3.1276 2.08825
thorax -2.59953 1.53609 0.259098
lowerneck -16.781 -4.70298 -9.11649
upperneck 20.34 -5.83924 7.44094
head 9.70625 -2.60314 3.32557
rclavicle 2.25621e-014 1.94809e-014
rhumerus -22.8737 -6.46469 -80.4842
rradius 36.0669
rwrist 3.78257
rhand -15.0916 12.0262
rfingers 7.12502
rthumb 11.0764 -17.6615
lclavicle 2.25621e-014 1.94809e-014
lhumerus -36.8697 8.20214 83.116
lradius 25.6322
lwrist -12.1189
lhand -9.09329 27.8028
lfingers 7.12502
lthumb 16.8566 57.0911
rfemur 15.9575 5.70717 27.7488
rtibia 16.1215
rfoot -12.4789 -3.77381
rtoes -14.1526
lfemur -33.2156 -1.88229 -15.5413
ltibia 21.7731
lfoot -4.22773 6.05617
ltoes -6.69617
266
root -0.00107906 17.1266 -1.21614 3.34231 -6.53411 -2.56609
lowerback 6.20979 2.21589 2.85172
upperback 0.883609 3.19368 2.02633
thorax -2.52721 1.57005 0.226309
lowerneck -16.3656 -4.72115 -9.07911
upperneck 20.0968 -5.8926 7.4187
head 9.54676 -2.63637 3.30558
rclavicle -1.09332e-014 1.39149e-014
rhumerus -23.5321 -6.84391 -80.2412
rradius 36.3819
rwrist 3.795
rhand -15.2636 12.1478
rfingers 7.12502
rthumb 10.9105 -17.5487
lclavicle -1.09332e-014 1.39149e-014
lhumerus -36.8484 8.41299 82.9355
lradius 24.6763
lwrist -12.3356
lhand -9.92179 26.1232
lfingers 7.12502
lthumb 16.059 55.4777
rfemur 16.0013 5.49287 27.3656
rtibia 17.6161
rfoot -11.8048 -3.38026
rtoes -14.8997
lfemur -33.0262 -1.6622 -16.1524
ltibia 22.9071
lfoot -2.75999 4.76824
ltoes -5.90421
